<svg width="200" height="200" viewBox="0 0 200 200" fill="none" xmlns="http://www.w3.org/2000/svg">
  <!-- Background -->
  <rect width="200" height="200" rx="44" fill="#007AFF"/>

  <!-- Document icon -->
  <g transform="translate(50, 40)">
    <!-- Main document -->
    <rect x="0" y="0" width="100" height="120" rx="8" fill="white"/>

    <!-- Header -->
    <rect x="12" y="16" width="76" height="6" rx="3" fill="#007AFF" opacity="0.3"/>
    <rect x="12" y="28" width="50" height="4" rx="2" fill="#007AFF" opacity="0.2"/>

    <!-- Content lines -->
    <rect x="12" y="44" width="76" height="3" rx="1.5" fill="#E5E5E5"/>
    <rect x="12" y="54" width="76" height="3" rx="1.5" fill="#E5E5E5"/>
    <rect x="12" y="64" width="60" height="3" rx="1.5" fill="#E5E5E5"/>

    <rect x="12" y="76" width="76" height="3" rx="1.5" fill="#E5E5E5"/>
    <rect x="12" y="86" width="76" height="3" rx="1.5" fill="#E5E5E5"/>
    <rect x="12" y="96" width="50" height="3" rx="1.5" fill="#E5E5E5"/>

    <!-- X Mark -->
    <g transform="translate(75, 94)">
      <rect x="0" y="0" width="16" height="16" rx="3" fill="#007AFF"/>
      <path d="M 4 4 L 12 12 M 12 4 L 4 12" stroke="white" stroke-width="1.6" stroke-linecap="round"/>
    </g>
  </g>
</svg>